<svg width="50" height="17" viewBox="0 0 39 15" fill="none" xmlns="http://www.w3.org/2000/svg"><path d="M7.8418 8.4541H2.7793V11.8818H8.7207V14H0.142578V1.20312H8.70312V3.33887H2.7793V6.38867H7.8418V8.4541Z" fill="#94A3B8"></path><path d="M12.7812 14H10.2324V0.5H12.7812V14Z" fill="#94A3B8"></path><path d="M17.5625 14H15.0137V4.49023H17.5625V14ZM14.8643 2.0293C14.8643 1.64844 14.9902 1.33496 15.2422 1.08887C15.5 0.842773 15.8486 0.719727 16.2881 0.719727C16.7217 0.719727 17.0674 0.842773 17.3252 1.08887C17.583 1.33496 17.7119 1.64844 17.7119 2.0293C17.7119 2.41602 17.5801 2.73242 17.3164 2.97852C17.0586 3.22461 16.7158 3.34766 16.2881 3.34766C15.8604 3.34766 15.5146 3.22461 15.251 2.97852C14.9932 2.73242 14.8643 2.41602 14.8643 2.0293Z" fill="#94A3B8"></path><path d="M23.6182 12.1279C24.0869 12.1279 24.4678 11.999 24.7607 11.7412C25.0537 11.4834 25.2061 11.1406 25.2178 10.7129H27.5996C27.5938 11.3574 27.418 11.9492 27.0723 12.4883C26.7266 13.0215 26.252 13.4375 25.6484 13.7363C25.0508 14.0293 24.3887 14.1758 23.6621 14.1758C22.3027 14.1758 21.2305 13.7451 20.4453 12.8838C19.6602 12.0166 19.2676 10.8213 19.2676 9.29785V9.13086C19.2676 7.66602 19.6572 6.49707 20.4365 5.62402C21.2158 4.75098 22.2852 4.31445 23.6445 4.31445C24.834 4.31445 25.7861 4.6543 26.501 5.33398C27.2217 6.00781 27.5879 6.90723 27.5996 8.03223H25.2178C25.2061 7.54004 25.0537 7.1416 24.7607 6.83691C24.4678 6.52637 24.0811 6.37109 23.6006 6.37109C23.0088 6.37109 22.5605 6.58789 22.2559 7.02148C21.957 7.44922 21.8076 8.14648 21.8076 9.11328V9.37695C21.8076 10.3555 21.957 11.0586 22.2559 11.4863C22.5547 11.9141 23.0088 12.1279 23.6182 12.1279Z" fill="#94A3B8"></path><path d="M31.7305 14H29.1816V4.49023H31.7305V14ZM29.0322 2.0293C29.0322 1.64844 29.1582 1.33496 29.4102 1.08887C29.668 0.842773 30.0166 0.719727 30.4561 0.719727C30.8896 0.719727 31.2354 0.842773 31.4932 1.08887C31.751 1.33496 31.8799 1.64844 31.8799 2.0293C31.8799 2.41602 31.748 2.73242 31.4844 2.97852C31.2266 3.22461 30.8838 3.34766 30.4561 3.34766C30.0283 3.34766 29.6826 3.22461 29.4189 2.97852C29.1611 2.73242 29.0322 2.41602 29.0322 2.0293Z" fill="#94A3B8"></path><path d="M36.8721 2.15234V4.49023H38.498V6.35352H36.8721V11.0996C36.8721 11.4512 36.9395 11.7031 37.0742 11.8555C37.209 12.0078 37.4668 12.084 37.8477 12.084C38.1289 12.084 38.3779 12.0635 38.5947 12.0225V13.9473C38.0967 14.0996 37.584 14.1758 37.0566 14.1758C35.2754 14.1758 34.3672 13.2764 34.332 11.4775V6.35352H32.9434V4.49023H34.332V2.15234H36.8721Z" fill="#94A3B8"></path></svg>